<svg id="Layer_1" data-name="Layer 1" xmlns="http://www.w3.org/2000/svg" xmlns:xlink="http://www.w3.org/1999/xlink" viewBox="0 0 115.7 20.3"><defs><style>.cls-1{fill:none;}.cls-2{clip-path:url(#clip-path);}.cls-3{fill:#ac0069;}.cls-4{fill:#003a66;}</style><clipPath id="clip-path"><rect class="cls-1" x="0.72" y="0.67" width="120.42" height="46.51"/></clipPath></defs><title>Montefiore logo</title><g class="cls-2"><path class="cls-3" d="M23.15,18.83c.26.1.24.66,0,.76-1.14-.05-2.16-.08-3.22-.08-1.24,0-2.37,0-3.53.08-.21-.1-.31-.61-.05-.76l.71-.14c1-.18,1.13-.36,1.13-2.16V5.76h-.05C17.38,7.21,17,8,16.51,9.05l-2.27,4.64c-.89,1.84-2.21,4.77-2.68,6a.83.83,0,0,1-.69,0c-.45-1.43-1.58-4-2.18-5.33l-2.35-5c-.5-1.11-1.21-2.77-1.53-3.56h0c0,1.29-.11,3.34-.16,4.45,0,1.61-.1,3.95-.1,6.11,0,1.74,0,2.14,1.16,2.35l.87.16c.18.15.18.66,0,.76-1-.05-1.79-.08-2.77-.08s-1.79,0-2.82.08a.59.59,0,0,1-.08-.76l.45-.06c1.27-.16,1.45-.55,1.64-2.16s.26-3.37.39-6.11c.11-1.79.26-4,.26-5.58,0-1.24-.39-1.77-1.42-1.95l-.89-.16c-.16-.19-.14-.69.1-.77.79.06,1.5.08,2.48.08s1.84,0,2.82-.08A11.8,11.8,0,0,0,8.11,6.42L11,12.5c.21.45.9,1.77,1.24,2.37.42-.76.77-1.5,1.37-2.74l2.48-5.05a27.84,27.84,0,0,0,2.13-5c.71.06,1.58.08,2.16.08,1.11,0,2,0,2.77-.08a.47.47,0,0,1,.08.77l-.87.13c-1.16.18-1.42.61-1.42,2,0,3.9,0,7.8.23,11.7.08,1.76.37,1.92,1.22,2.05Z"/><path class="cls-4" d="M29.67,18.83c1.81,0,2.34-2.16,2.34-4.19,0-2.22-.76-4.82-2.71-4.82-1.35,0-2.4,1.37-2.4,4.29,0,2.4.87,4.72,2.77,4.72m5.45-4.64c0,3.74-2.63,5.69-5.77,5.69S23.79,18,23.79,14.51a5.61,5.61,0,0,1,5.77-5.75,5.29,5.29,0,0,1,5.56,5.43"/><path class="cls-4" d="M40.3,16.38c0,1.95.1,2.26,1,2.39l.39.06c.19.18.16.66,0,.76-.92-.05-1.82-.08-2.79-.08s-1.74,0-2.85.08c-.21-.1-.23-.58,0-.76l.58-.08c.9-.13,1-.42,1-2.37V12.5c0-1.18,0-1.5-.66-1.89l-.31-.19a.7.7,0,0,1,0-.6A17.51,17.51,0,0,0,40,8.39a.37.37,0,0,1,.34.21c-.05.5-.05,1-.05,1.22s.08.23.24.26c1.23-.69,2-1.32,3.61-1.32,2.13,0,3.13,1.48,3.13,3.53v4.09c0,1.95.11,2.26,1,2.37l.61.08c.18.18.16.66-.06.76-1.1-.05-2-.08-3-.08s-1.77,0-2.69.08c-.21-.1-.24-.58-.05-.76l.39-.06c.9-.13,1-.44,1-2.39V12.74c0-1.34-.52-2.4-2.1-2.4a2.13,2.13,0,0,0-1.74.82c-.35.47-.37.71-.37,1.69Z"/><path class="cls-4" d="M54.06,10.29c-.48,0-.51.05-.51.9v4.05c0,1.66.24,3.14,1.93,3.14a2,2,0,0,0,1.26-.48.41.41,0,0,1,.34.53,4.1,4.1,0,0,1-3.34,1.45c-2.5,0-3-1.45-3-3.29V11.24c0-.92,0-1-.48-1h-.92a.44.44,0,0,1-.08-.71,8.37,8.37,0,0,0,2.08-1.11,5,5,0,0,0,1.45-1.63.56.56,0,0,1,.74.13V8.55c0,.42,0,.5.5.5h2.61c.16.08.21.29.21.55a.84.84,0,0,1-.34.69Z"/><path class="cls-4" d="M63.37,12.21A2.9,2.9,0,0,0,64.66,12a.66.66,0,0,0,.26-.55,1.63,1.63,0,0,0-1.74-1.72A2.71,2.71,0,0,0,60.6,12c0,.1,0,.18.37.18Zm-2.43,1.06c-.5,0-.55,0-.55.34a4,4,0,0,0,4,4.27,2.73,2.73,0,0,0,2.53-1.32.51.51,0,0,1,.58.42A4.76,4.76,0,0,1,63,19.88a5,5,0,0,1-5.08-5.27A5.57,5.57,0,0,1,63.5,8.76a3.7,3.7,0,0,1,4,3.56,1.12,1.12,0,0,1-.13.6c-.16.24-.76.35-1.82.35Z"/><path class="cls-4" d="M111,12.21a2.84,2.84,0,0,0,1.29-.18.67.67,0,0,0,.27-.55,1.63,1.63,0,0,0-1.74-1.72A2.71,2.71,0,0,0,108.23,12c0,.1.06.18.37.18Zm-2.42,1.06c-.5,0-.56,0-.56.34a4,4,0,0,0,4,4.27,2.71,2.71,0,0,0,2.53-1.32.5.5,0,0,1,.58.42,4.74,4.74,0,0,1-4.45,2.9,5,5,0,0,1-5.09-5.27,5.57,5.57,0,0,1,5.56-5.85,3.71,3.71,0,0,1,4,3.56,1.13,1.13,0,0,1-.14.6c-.16.24-.76.35-1.81.35Z"/><path class="cls-4" d="M73.62,10.37c-.55,0-.55.05-.55.82v5.19c0,1.95.1,2.23,1,2.34l1,.11a.55.55,0,0,1-.05.76c-1.18-.05-2.21-.08-3.45-.08-.87,0-1.76,0-2.85.08a.56.56,0,0,1,0-.76l.58-.08c.9-.14,1-.42,1-2.37V11.16c0-.71,0-.79-.47-.79h-1a.39.39,0,0,1-.08-.61l1.13-.58a.61.61,0,0,0,.37-.58V8.13a11.77,11.77,0,0,1,.56-3.77A5.12,5.12,0,0,1,75.78.67c1.82,0,3,.82,3,1.93A1.31,1.31,0,0,1,77.5,3.86a.88.88,0,0,1-.77-.37c-.84-1.21-1.42-1.74-2-1.74-.9,0-1.61,1.79-1.61,5.75v.79c0,.79,0,.84.58.84h2.77a.54.54,0,0,1,.15.42.85.85,0,0,1-.37.82Z"/><path class="cls-4" d="M78.9,4.76a1.61,1.61,0,0,1,3.21,0,1.61,1.61,0,0,1-3.21,0M82,16.38c0,1.95.1,2.21,1,2.37l.47.08c.19.18.16.66,0,.76-1-.05-1.87-.08-2.85-.08s-1.76,0-2.76.08c-.21-.1-.24-.58-.06-.76l.48-.08c.89-.16,1-.42,1-2.37V12.5c0-1.18,0-1.5-.66-1.89l-.32-.19a.74.74,0,0,1,0-.6,15.8,15.8,0,0,0,3.43-1.43.48.48,0,0,1,.36.21c0,.87-.07,2.14-.07,3.22Z"/><path class="cls-4" d="M90.26,18.83c1.82,0,2.35-2.16,2.35-4.19,0-2.22-.77-4.82-2.72-4.82-1.34,0-2.39,1.37-2.39,4.29,0,2.4.87,4.72,2.76,4.72m5.46-4.64A5.41,5.41,0,0,1,90,19.88c-3,0-5.56-1.92-5.56-5.37a5.61,5.61,0,0,1,5.77-5.75,5.29,5.29,0,0,1,5.56,5.43"/><path class="cls-4" d="M98.13,12.5c0-1.18,0-1.5-.66-1.89l-.32-.19a.74.74,0,0,1,0-.6,18.48,18.48,0,0,0,3.32-1.43.37.37,0,0,1,.37.24c0,.5-.05.95-.05,1.19s.1.31.26.31c.82-.58,1.69-1.37,2.58-1.37a1.33,1.33,0,0,1,1.45,1.29,1.45,1.45,0,0,1-1.47,1.53,1.32,1.32,0,0,1-.71-.21,2.38,2.38,0,0,0-1.27-.5c-.61,0-.76.61-.76,1.9v3.61c0,1.95.1,2.24,1,2.34l1,.11a.55.55,0,0,1,0,.76c-1.58-.05-2.48-.08-3.45-.08s-1.74,0-2.74.08a.56.56,0,0,1-.06-.76l.48-.08c.89-.16,1-.42,1-2.37Z"/></g></svg>